<?xml version="1.0" encoding="UTF-8"?>
<svg width="32px" height="32px" viewBox="0 0 32 32" version="1.1" xmlns="http://www.w3.org/2000/svg" xmlns:xlink="http://www.w3.org/1999/xlink">
    <!-- Generator: sketchtool 60.1 (101010) - https://sketch.com -->
    <title>5015bef3-2953-4a04-875c-a8ebdd90a897@1.00x</title>
    <desc>Created with sketchtool.</desc>
    <g id="--assets" stroke="none" stroke-width="1" fill="none" fill-rule="evenodd">
        <g id="--asset-/-icon-/-caution" fill="#F15F56">
            <path d="M29.823087,24.496531 C30.0835028,25.0173633 30.1648831,25.5463332 30.0672271,26.0834412 C29.9695711,26.6205493 29.7091553,27.0762772 29.2859789,27.4506255 C28.8628026,27.8249738 28.3582468,28.0121476 27.7723107,28.0121476 L4.33486655,28.0121476 C3.74893045,28.0121476 3.24437461,27.8249738 2.82119829,27.4506255 C2.39802196,27.0762772 2.13760617,26.6205493 2.03995015,26.0834412 C1.94229413,25.5463332 2.02367439,25.0173633 2.28409019,24.496531 L14.0028123,4.18407939 C14.2957803,3.66324705 14.7108184,3.31331349 15.2479265,3.13427721 C15.7850346,2.95524093 16.3221427,2.95524093 16.8592508,3.13427721 C17.3963588,3.31331349 17.8113969,3.66324705 18.104365,4.18407939 L29.823087,24.496531 Z M16.0535886,20.2973222 C15.4351003,20.2973222 14.9061304,20.5170483 14.4666783,20.9565003 C14.0272263,21.3959524 13.8075002,21.9249223 13.8075002,22.5434106 C13.8075002,23.161899 14.0272263,23.6908688 14.4666783,24.1303209 C14.9061304,24.569773 15.4351003,24.789499 16.0535886,24.789499 C16.672077,24.789499 17.2010468,24.569773 17.6404989,24.1303209 C18.079951,23.6908688 18.299677,23.161899 18.299677,22.5434106 C18.299677,21.9249223 18.079951,21.3959524 17.6404989,20.9565003 C17.2010468,20.5170483 16.672077,20.2973222 16.0535886,20.2973222 Z M13.9051562,12.2407008 L14.2957803,18.88131 C14.2957803,19.0115182 14.3527466,19.1335883 14.4666783,19.24752 C14.5806101,19.3614518 14.7189566,19.4184181 14.8817164,19.4184181 L17.2254608,19.4184181 C17.3882206,19.4184181 17.5265671,19.3614518 17.6404989,19.24752 C17.7544307,19.1335883 17.8113969,19.0115182 17.8113969,18.88131 L18.202021,12.2407008 C18.202021,12.0453888 18.1450547,11.8907665 18.031123,11.7768347 C17.9171912,11.662903 17.7788447,11.6059367 17.6160849,11.6059367 L14.4910923,11.6059367 C14.3283326,11.6059367 14.189986,11.662903 14.0760543,11.7768347 C13.9621225,11.8907665 13.9051562,12.0453888 13.9051562,12.2407008 Z" id="e"></path>
        </g>
    </g>
</svg>